<svg width="17" height="16" viewBox="0 0 17 16" fill="none" xmlns="http://www.w3.org/2000/svg">
<mask id="mask0_2251_9493" style="mask-type:alpha" maskUnits="userSpaceOnUse" x="0" y="2" width="17" height="12">
<path fill-rule="evenodd" clip-rule="evenodd" d="M15.8884 4.07389C16.1104 4.18816 16.25 4.41694 16.25 4.66667V11.3333C16.25 11.5831 16.1104 11.8118 15.8884 11.9261C15.6663 12.0404 15.3991 12.021 15.1958 11.8758L10.5292 8.54249C10.354 8.41735 10.25 8.2153 10.25 8C10.25 7.7847 10.354 7.58265 10.5292 7.45751L15.1958 4.12418C15.3991 3.97903 15.6663 3.95962 15.8884 4.07389ZM12.0636 8L14.9167 10.0379V5.96213L12.0636 8Z" fill="#061938"/>
<path fill-rule="evenodd" clip-rule="evenodd" d="M2.25 4.00008C1.88181 4.00008 1.58333 4.29856 1.58333 4.66675V11.3334C1.58333 11.7016 1.88181 12.0001 2.25 12.0001H9.58333C9.95152 12.0001 10.25 11.7016 10.25 11.3334V4.66675C10.25 4.29856 9.95152 4.00008 9.58333 4.00008H2.25ZM0.25 4.66675C0.25 3.56218 1.14543 2.66675 2.25 2.66675H9.58333C10.6879 2.66675 11.5833 3.56218 11.5833 4.66675V11.3334C11.5833 12.438 10.6879 13.3334 9.58333 13.3334H2.25C1.14543 13.3334 0.25 12.438 0.25 11.3334V4.66675Z" fill="#061938"/>
</mask>
<g mask="url(#mask0_2251_9493)">
<rect x="0.25" width="16" height="16" fill="white"/>
</g>
</svg>
