<svg width="88" height="88" viewBox="0 0 88 88" fill="none" xmlns="http://www.w3.org/2000/svg">
<rect width="88" height="88" rx="44" fill="#EE1B1B"/>
<mask id="mask0_1024_372880" style="mask-type:alpha" maskUnits="userSpaceOnUse" x="18" y="18" width="52" height="52">
<path d="M53.5666 69.6668H34.4333C33.7333 69.6668 33.2666 69.4335 32.7999 68.9668L19.0333 55.2002C18.5666 54.9668 18.3333 54.2668 18.3333 53.5668V34.4335C18.3333 33.7335 18.5666 33.2668 19.0333 32.8002L32.7999 19.0335C33.0333 18.5668 33.7333 18.3335 34.4333 18.3335H53.7999C54.4999 18.3335 54.9666 18.5668 55.4333 19.0335L69.1999 32.8002C69.4333 33.0335 69.6666 33.7335 69.6666 34.4335V53.8002C69.6666 54.5002 69.4333 54.9668 68.9666 55.4335L55.1999 69.2002C54.9666 69.4335 54.2666 69.6668 53.5666 69.6668ZM35.3666 65.0002H52.8666L65.2333 52.6335V35.3668L52.6333 23.0002H35.3666L22.9999 35.3668V52.8668L35.3666 65.0002Z" fill="#061938"/>
<path d="M43.9999 46.3335C42.5999 46.3335 41.6666 45.4002 41.6666 44.0002V34.6668C41.6666 33.2668 42.5999 32.3335 43.9999 32.3335C45.3999 32.3335 46.3333 33.2668 46.3333 34.6668V44.0002C46.3333 45.4002 45.3999 46.3335 43.9999 46.3335Z" fill="#061938"/>
<path d="M43.9999 55.6668C43.2999 55.6668 42.8333 55.4335 42.3666 54.9668C41.8999 54.5002 41.6666 54.0335 41.6666 53.3335C41.6666 53.1002 41.6666 52.6335 41.8999 52.4002C42.1333 52.1668 42.1333 51.9335 42.3666 51.7002C43.0666 51.0002 43.9999 50.7668 44.9333 51.2335C45.1666 51.2335 45.1666 51.2335 45.3999 51.4668C45.3999 51.4668 45.6333 51.7002 45.8666 51.7002C46.0999 51.9335 46.3333 52.1668 46.3333 52.4002C46.3333 52.6335 46.3333 53.1002 46.3333 53.3335C46.3333 53.5668 46.3333 54.0335 46.0999 54.2668C45.8666 54.5002 45.8666 54.7335 45.6333 54.9668C45.1666 55.4335 44.6999 55.6668 43.9999 55.6668Z" fill="#061938"/>
</mask>
<g mask="url(#mask0_1024_372880)">
<rect x="16" y="16" width="56" height="56" fill="white"/>
</g>
</svg>
