<svg width="24" height="24" viewBox="0 0 24 24" fill="none" xmlns="http://www.w3.org/2000/svg">
<mask id="mask0_910_38416" style="mask-type:alpha" maskUnits="userSpaceOnUse" x="1" y="1" width="22" height="22">
<path fill-rule="evenodd" clip-rule="evenodd" d="M3 12C3 7.02944 7.02944 3 12 3C16.9706 3 21 7.02944 21 12C21 13.4574 20.6536 14.8339 20.0386 16.0517C19.8874 15.8445 19.7195 15.6481 19.5359 15.4645C18.5982 14.5268 17.3264 14 16.0004 14H8.00035C6.67427 14 5.4025 14.5268 4.46482 15.4645C4.28103 15.6483 4.11303 15.8449 3.96169 16.0522C3.34652 14.8343 3 13.4576 3 12ZM5.20749 17.9046C6.85751 19.8011 9.28875 21 12 21C14.7115 21 17.143 19.8009 18.793 17.904C18.6436 17.5233 18.4165 17.1735 18.1217 16.8787C17.5591 16.3161 16.796 16 16.0004 16H8.00035C7.2047 16 6.44164 16.3161 5.87903 16.8787C5.58409 17.1736 5.3569 17.5237 5.20749 17.9046ZM12 1C5.92487 1 1 5.92487 1 12C1 18.0751 5.92487 23 12 23C18.0751 23 23 18.0751 23 12C23 5.92487 18.0751 1 12 1Z" fill="#061938"/>
<path fill-rule="evenodd" clip-rule="evenodd" d="M12 5C9.79086 5 8 6.79086 8 9C8 11.2091 9.79086 13 12 13C14.2091 13 16 11.2091 16 9C16 6.79086 14.2091 5 12 5ZM10 9C10 7.89543 10.8954 7 12 7C13.1046 7 14 7.89543 14 9C14 10.1046 13.1046 11 12 11C10.8954 11 10 10.1046 10 9Z" fill="#061938"/>
</mask>
<g mask="url(#mask0_910_38416)">
<rect width="24" height="24" fill="#A4A4A4"/>
</g>
</svg>
