<svg width="124" height="40" viewBox="0 0 124 40" fill="none" xmlns="http://www.w3.org/2000/svg">
<path d="M27.0595 9.83057C24.13 9.8331 21.315 10.9637 19.2035 12.9857C17.092 10.9637 14.277 9.8331 11.3475 9.83057C8.33797 9.83057 5.45169 11.021 3.32362 13.1401C1.19554 15.2591 0 18.1332 0 21.13V39.6157H6.98309V21.1474C6.98309 19.9948 7.44291 18.8894 8.2614 18.0743C9.07989 17.2593 10.19 16.8014 11.3475 16.8014C12.505 16.8014 13.6151 17.2593 14.4336 18.0743C15.2521 18.8894 15.7119 19.9948 15.7119 21.1474V39.6157H22.695V21.1474C22.695 19.9948 23.1549 18.8894 23.9734 18.0743C24.7918 17.2593 25.9019 16.8014 27.0595 16.8014C28.217 16.8014 29.3271 17.2593 30.1456 18.0743C30.9641 18.8894 31.4239 19.9948 31.4239 21.1474V39.6157H38.407V21.1474C38.4093 19.6621 38.1175 18.1909 37.5482 16.8179C36.979 15.445 36.1435 14.1973 35.0896 13.1462C34.0356 12.0951 32.7839 11.2613 31.406 10.6923C30.0281 10.1234 28.5511 9.83056 27.0595 9.83057Z" fill="black"/>
<path d="M98.6015 9.83057C94.5826 9.83057 90.7283 11.4203 87.8865 14.2501C85.0447 17.0798 83.4482 20.9178 83.4482 24.9197C83.4529 28.9177 85.0517 32.7503 87.8932 35.5749C90.7348 38.3996 94.5865 39.985 98.6015 39.9827C102.618 39.9827 106.47 38.3938 109.31 35.5657C112.151 32.7376 113.746 28.9018 113.746 24.9023C113.744 20.9042 112.147 17.0707 109.307 14.2444C106.467 11.4182 102.617 9.83057 98.6015 9.83057ZM98.6015 33.0292C96.9908 33.0292 95.4162 32.5536 94.077 31.6625C92.7377 30.7714 91.6938 29.5049 91.0774 28.023C90.461 26.5412 90.2998 24.9107 90.614 23.3376C90.9282 21.7645 91.7039 20.3195 92.8428 19.1854C93.9818 18.0512 95.4329 17.2789 97.0127 16.966C98.5925 16.6531 100.23 16.8136 101.718 17.4274C103.206 18.0412 104.478 19.0806 105.373 20.4142C106.268 21.7479 106.746 23.3157 106.746 24.9197C106.743 27.0697 105.884 29.1311 104.358 30.6514C102.831 32.1717 100.761 33.0269 98.6015 33.0292Z" fill="black"/>
<path d="M48.8119 3.77662C48.8119 1.69085 47.1139 0 45.0193 0C42.9246 0 41.2266 1.69085 41.2266 3.77662C41.2266 5.86239 42.9246 7.55324 45.0193 7.55324C47.1139 7.55324 48.8119 5.86239 48.8119 3.77662Z" fill="black"/>
<path d="M48.5327 10.465H41.5234V39.6154H48.5327V10.465Z" fill="black"/>
<path d="M74.1343 12.2121C71.706 10.6552 68.8784 9.8283 65.9903 9.8305C64.0007 9.8305 62.0307 10.2209 60.1927 10.9793C58.3547 11.7377 56.6848 12.8493 55.2784 14.2505C53.8719 15.6518 52.7566 17.3153 51.996 19.1459C51.2354 20.9765 50.8446 22.9385 50.8457 24.9196C50.8503 28.9162 52.448 32.7474 55.2876 35.5718C58.1273 38.3962 61.9767 39.9826 65.9903 39.9826C68.8784 39.9848 71.706 39.1579 74.1343 37.601V39.6156H81.1174V24.9196V0.769409H74.1343V12.2121ZM65.9903 33.0726C64.3795 33.0726 62.805 32.597 61.4657 31.7059C60.1264 30.8148 59.0826 29.5483 58.4662 28.0664C57.8498 26.5846 57.6885 24.9541 58.0027 23.381C58.317 21.8079 59.0926 20.3629 60.2316 19.2288C61.3705 18.0946 62.8217 17.3223 64.4015 17.0094C65.9812 16.6965 67.6187 16.857 69.1069 17.4708C70.595 18.0846 71.8669 19.124 72.7618 20.4576C73.6567 21.7913 74.1343 23.3591 74.1343 24.9631C74.1182 27.1049 73.2536 29.1538 71.7286 30.6642C70.2035 32.1747 68.1413 33.0246 65.9903 33.0291V33.0726Z" fill="black"/>
<path d="M123.077 0.769409H116.067V39.6156H123.077V0.769409Z" fill="black"/>
</svg>
