<svg width="160" height="48" viewBox="0 0 160 48" fill="none" xmlns="http://www.w3.org/2000/svg">
<g clip-path="url(#clip0_226_4390)">
<path d="M72.1095 15.8643C69.7659 15.8663 67.5139 16.7707 65.8247 18.3884C64.1355 16.7707 61.8835 15.8663 59.5399 15.8643C57.1323 15.8643 54.8233 16.8166 53.1208 18.5119C51.4183 20.2071 50.4619 22.5064 50.4619 24.9038V39.9859H56.0484V24.9177C56.0484 23.9956 56.4162 23.1113 57.071 22.4593C57.7258 21.8073 58.6139 21.441 59.5399 21.441C60.4659 21.441 61.354 21.8073 62.0088 22.4593C62.6636 23.1113 63.0315 23.9956 63.0315 24.9177V39.9859H68.6179V24.9177C68.6179 23.9956 68.9858 23.1113 69.6406 22.4593C70.2954 21.8073 71.1835 21.441 72.1095 21.441C73.0355 21.441 73.9236 21.8073 74.5784 22.4593C75.2332 23.1113 75.601 23.9956 75.601 24.9177V39.9859H81.1875V24.9177C81.1893 23.7295 80.9559 22.5525 80.5005 21.4542C80.0451 20.3558 79.3767 19.3577 78.5336 18.5168C77.6904 17.6759 76.689 17.0088 75.5867 16.5537C74.4844 16.0985 73.3028 15.8643 72.1095 15.8643Z" fill="black"/>
<path d="M129.343 15.8643C126.128 15.8643 123.045 17.136 120.771 19.3999C118.498 21.6637 117.221 24.734 117.221 27.9355C117.224 31.134 118.503 34.2001 120.777 36.4598C123.05 38.7194 126.131 39.9878 129.343 39.9859C132.557 39.9859 135.638 38.7149 137.91 36.4524C140.183 34.1899 141.459 31.1213 141.459 27.9216C141.457 24.7232 140.18 21.6564 137.908 19.3954C135.636 17.1344 132.555 15.8643 129.343 15.8643ZM129.343 34.4231C128.055 34.4231 126.795 34.0427 125.724 33.3298C124.652 32.6169 123.817 31.6037 123.324 30.4182C122.831 29.2328 122.702 27.9283 122.953 26.6699C123.205 25.4114 123.825 24.2554 124.736 23.3481C125.648 22.4408 126.808 21.8229 128.072 21.5726C129.336 21.3222 130.646 21.4507 131.837 21.9418C133.027 22.4328 134.045 23.2643 134.761 24.3312C135.476 25.3981 135.859 26.6524 135.859 27.9355C135.857 29.6556 135.17 31.3047 133.948 32.5209C132.727 33.7372 131.071 34.4213 129.343 34.4231Z" fill="black"/>
<path d="M89.5117 11.0213C89.5117 9.35268 88.1532 8 86.4775 8C84.8018 8 83.4434 9.35268 83.4434 11.0213C83.4434 12.6899 84.8018 14.0426 86.4775 14.0426C88.1532 14.0426 89.5117 12.6899 89.5117 11.0213Z" fill="black"/>
<path d="M89.2881 16.3721H83.6807V40.0001H89.2881V16.3721Z" fill="black"/>
<path d="M109.77 17.7701C107.827 16.5246 105.565 15.8631 103.254 15.8649C101.663 15.8649 100.087 16.1771 98.6163 16.7839C97.1459 17.3906 95.8099 18.2799 94.6848 19.4009C93.5597 20.5219 92.6674 21.8527 92.0589 23.3172C91.4505 24.7817 91.1378 26.3512 91.1387 27.9361C91.1424 31.1334 92.4205 34.1984 94.6922 36.4579C96.9639 38.7174 100.043 39.9865 103.254 39.9865C105.565 39.9883 107.827 39.3268 109.77 38.0813V39.9865H115.356V27.9361V8.32031H109.77V17.7701ZM103.254 34.4585C101.966 34.4585 100.706 34.078 99.6347 33.3652C98.5632 32.6523 97.7282 31.6391 97.235 30.4536C96.7419 29.2681 96.6129 27.9637 96.8643 26.7052C97.1157 25.4468 97.7362 24.2908 98.6474 23.3835C99.5585 22.4762 100.719 21.8583 101.983 21.6079C103.247 21.3576 104.557 21.4861 105.748 21.9771C106.938 22.4682 107.956 23.2997 108.672 24.3666C109.387 25.4335 109.77 26.6878 109.77 27.9709C109.757 29.6844 109.065 31.3235 107.845 32.5318C106.625 33.7402 104.975 34.4201 103.254 34.4237V34.4585Z" fill="black"/>
<path d="M148.924 8.32031H143.316V40.0005H148.924V8.32031Z" fill="black"/>
<path d="M44.7755 14.3506C45.3691 13.5339 45.6309 12.5245 45.5084 11.5243C45.3859 10.524 44.8882 9.60651 44.1148 8.95529C43.3414 8.30408 42.3493 7.96711 41.3368 8.01174C40.3244 8.05638 39.3662 8.47933 38.6538 9.19604L31.1328 16.201L37.2265 23.999L44.7755 14.3506Z" fill="#532F91"/>
<path d="M44.7755 33.6613C45.3691 34.478 45.6309 35.4874 45.5084 36.4876C45.3859 37.4879 44.8882 38.4054 44.1148 39.0566C43.3414 39.7078 42.3493 40.0448 41.3368 40.0001C40.3244 39.9555 39.3662 39.5326 38.6538 38.8158L31.1328 31.8109L37.2265 23.999L44.7755 33.6613Z" fill="#F6B119"/>
<path d="M22.7656 23.999L14.3701 31.8039L19.4354 38.2872C19.8049 38.8181 20.2984 39.2519 20.8735 39.5516C21.4486 39.8513 22.0883 40.0079 22.7376 40.0079C23.3869 40.0079 24.0266 39.8513 24.6017 39.5516C25.1769 39.2519 25.6703 38.8181 26.0398 38.2872L31.1051 31.8039L22.7656 23.999Z" fill="#532F91"/>
<path d="M31.1331 16.2012L22.7656 24.0061L31.1331 31.811L37.2268 24.0061L31.1331 16.2012Z" fill="#EC156B"/>
<path d="M37.2266 23.9986L44.6006 33.4521L44.6566 33.5217L44.7685 33.6608C45.2688 34.3438 45.5382 35.1671 45.5381 36.012V11.999C45.5403 12.8432 45.2733 13.6664 44.7755 14.3502L44.6636 14.4963L44.6076 14.5589L37.2266 23.9986Z" fill="#54C5D6"/>
<path d="M0.769248 14.3506C0.175599 13.5339 -0.0861491 12.5245 0.0363352 11.5243C0.158819 10.524 0.65651 9.60651 1.4299 8.95529C2.2033 8.30408 3.1954 7.96711 4.20787 8.01174C5.22034 8.05638 6.17855 8.47933 6.89095 9.19604L14.3979 16.201L8.30419 23.999L0.769248 14.3506Z" fill="#532F91"/>
<path d="M0.769248 33.6613C0.175599 34.478 -0.0861491 35.4874 0.0363352 36.4876C0.158819 37.4879 0.65651 38.4054 1.4299 39.0566C2.2033 39.7078 3.1954 40.0448 4.20787 40.0001C5.22034 39.9555 6.17855 39.5326 6.89095 38.8158L14.3979 31.8109L8.30419 23.999L0.769248 33.6613Z" fill="#F6B119"/>
<path d="M14.3984 16.2012L22.7659 24.0061L14.3984 31.811L8.30469 24.0061L14.3984 16.2012Z" fill="#EC156B"/>
<path d="M8.30452 23.9986L0.930498 33.4521C0.91031 33.4724 0.893748 33.4959 0.881525 33.5217L0.769585 33.6608C0.269312 34.3438 -0.000140116 35.1671 5.46605e-08 36.012V11.999C-0.000140116 12.844 0.269312 13.6672 0.769585 14.3502L0.881525 14.4963L0.930498 14.5589L8.30452 23.9986Z" fill="#54C5D6"/>
</g>
<defs>
<clipPath id="clip0_226_4390">
<rect width="148.923" height="32" fill="white" transform="translate(0 8)"/>
</clipPath>
</defs>
</svg>
