<svg width="29" height="20" viewBox="0 0 29 20" fill="none" xmlns="http://www.w3.org/2000/svg">
<path d="M27.9847 3.96426C28.3557 3.45382 28.5193 2.82295 28.4427 2.19777C28.3662 1.5726 28.0551 0.999183 27.5718 0.592175C27.0884 0.185168 26.4683 -0.0254411 25.8355 0.00245569C25.2027 0.0303524 24.6038 0.294699 24.1586 0.742645L19.458 5.12074L23.2666 9.99446L27.9847 3.96426Z" fill="#532F91"/>
<path d="M27.9847 16.0335C28.3557 16.544 28.5193 17.1748 28.4427 17.8C28.3662 18.4252 28.0551 18.9986 27.5718 19.4056C27.0884 19.8126 26.4683 20.0232 25.8355 19.9953C25.2027 19.9674 24.6038 19.7031 24.1586 19.2551L19.458 14.877L23.2666 9.99463L27.9847 16.0335Z" fill="#F6B119"/>
<path d="M14.2286 9.99463L8.98145 14.8727L12.1472 18.9247C12.3782 19.2565 12.6866 19.5277 13.0461 19.715C13.4055 19.9023 13.8053 20.0002 14.2111 20.0002C14.617 20.0002 15.0167 19.9023 15.3762 19.715C15.7357 19.5277 16.0441 19.2565 16.275 18.9247L19.4408 14.8727L14.2286 9.99463Z" fill="#532F91"/>
<path d="M19.4582 5.12061L14.2285 9.99868L19.4582 14.8768L23.2668 9.99868L19.4582 5.12061Z" fill="#EC156B"/>
<path d="M23.2666 9.99434L27.8754 15.9028L27.9103 15.9463L27.9803 16.0332C28.293 16.4601 28.4614 16.9746 28.4613 17.5027V2.49463C28.4627 3.02224 28.2958 3.53671 27.9847 3.96414L27.9147 4.05544L27.8797 4.09457L23.2666 9.99434Z" fill="#54C5D6"/>
<path d="M0.481391 3.96426C0.11036 3.45382 -0.0532328 2.82295 0.0233199 2.19777C0.0998725 1.5726 0.410929 0.999183 0.8943 0.592175C1.37767 0.185168 1.99774 -0.0254411 2.63053 0.00245569C3.26332 0.0303524 3.86221 0.294699 4.30745 0.742645L8.9993 5.12074L5.19073 9.99446L0.481391 3.96426Z" fill="#532F91"/>
<path d="M0.481391 16.0335C0.11036 16.544 -0.0532328 17.1748 0.0233199 17.8C0.0998725 18.4252 0.410929 18.9986 0.8943 19.4056C1.37767 19.8126 1.99774 20.0232 2.63053 19.9953C3.26332 19.9674 3.86221 19.7031 4.30745 19.2551L8.9993 14.877L5.19073 9.99463L0.481391 16.0335Z" fill="#F6B119"/>
<path d="M8.999 5.12061L14.2287 9.99868L8.999 14.8768L5.19043 9.99868L8.999 5.12061Z" fill="#EC156B"/>
<path d="M5.19033 9.99434L0.581562 15.9028C0.568944 15.9155 0.558592 15.9302 0.550953 15.9463L0.480991 16.0332C0.16832 16.4601 -8.75725e-05 16.9746 3.41628e-08 17.5027V2.49463C-8.75725e-05 3.02273 0.16832 3.53724 0.480991 3.96414L0.550953 4.05544L0.581562 4.09457L5.19033 9.99434Z" fill="#54C5D6"/>
</svg>
