<svg width="88" height="88" viewBox="0 0 88 88" fill="none" xmlns="http://www.w3.org/2000/svg">
<rect width="88" height="88" rx="44" fill="#006644"/>
<mask id="mask0_3919_62396" style="mask-type:alpha" maskUnits="userSpaceOnUse" x="18" y="18" width="52" height="52">
<path fill-rule="evenodd" clip-rule="evenodd" d="M52.5477 24.8047C48.4112 22.9616 43.7898 22.505 39.3727 23.503C34.9555 24.501 30.9793 26.9001 28.037 30.3425C25.0948 33.7849 23.3441 38.0863 23.0462 42.6049C22.7482 47.1236 23.9189 51.6175 26.3837 55.4165C28.8484 59.2155 32.4752 62.1159 36.723 63.6853C40.9709 65.2547 45.6123 65.4088 49.9549 64.1249C54.2976 62.8409 58.1088 60.1875 60.8203 56.5605C63.5317 52.9335 64.9981 48.5272 65.0007 43.9987V41.8533C65.0007 40.5647 66.0453 39.52 67.334 39.52C68.6227 39.52 69.6673 40.5647 69.6673 41.8533V44C69.6642 49.5348 67.8719 54.9217 64.5579 59.3547C61.2439 63.7877 56.5858 67.0307 51.2781 68.6C45.9704 70.1693 40.2976 69.9809 35.1058 68.0628C29.914 66.1447 25.4813 62.5997 22.4688 57.9565C19.4563 53.3133 18.0254 47.8207 18.3896 42.2979C18.7538 36.775 20.8935 31.5179 24.4896 27.3105C28.0857 23.1031 32.9455 20.1708 38.3442 18.951C43.7429 17.7313 49.3913 18.2893 54.447 20.542C55.6241 21.0665 56.1532 22.4459 55.6287 23.623C55.1042 24.8001 53.7248 25.3292 52.5477 24.8047Z" fill="#061938"/>
<path fill-rule="evenodd" clip-rule="evenodd" d="M68.9828 23.6826C69.8944 24.5934 69.8952 26.0707 68.9844 26.9824L45.6511 50.3391C45.2136 50.777 44.62 51.0232 44.0009 51.0233C43.3819 51.0235 42.7881 50.7776 42.3504 50.3399L35.3504 43.3399C34.4392 42.4287 34.4392 40.9513 35.3504 40.0401C36.2616 39.1289 37.739 39.1289 38.6502 40.0401L43.9995 45.3893L65.6829 23.6842C66.5937 22.7726 68.0711 22.7718 68.9828 23.6826Z" fill="#061938"/>
</mask>
<g mask="url(#mask0_3919_62396)">
<rect x="16" y="16" width="56" height="56" fill="white"/>
</g>
</svg>
