<svg width="32" height="32" viewBox="0 0 32 32" fill="none" xmlns="http://www.w3.org/2000/svg">
<mask id="mask0_726_63347" style="mask-type:alpha" maskUnits="userSpaceOnUse" x="1" y="1" width="30" height="29">
<path fill-rule="evenodd" clip-rule="evenodd" d="M15.9997 1.33398C16.5072 1.33398 16.9707 1.62208 17.1953 2.07715L21.0054 9.79594L29.5259 11.0413C30.028 11.1147 30.4449 11.4667 30.6014 11.9494C30.7579 12.4321 30.6268 12.9618 30.2634 13.3158L24.0991 19.3198L25.5539 27.8019C25.6397 28.3022 25.434 28.8078 25.0234 29.1061C24.6127 29.4044 24.0683 29.4437 23.6191 29.2074L15.9997 25.2005L8.38032 29.2074C7.93109 29.4437 7.38671 29.4044 6.97607 29.1061C6.56543 28.8078 6.35977 28.3022 6.44557 27.8019L7.90035 19.3198L1.73607 13.3158C1.37258 12.9618 1.24155 12.4321 1.39805 11.9494C1.55456 11.4667 1.97146 11.1147 2.47354 11.0413L10.994 9.79594L14.8041 2.07715C15.0287 1.62208 15.4922 1.33398 15.9997 1.33398ZM15.9997 5.67966L13.0753 11.6042C12.8813 11.9973 12.5064 12.2699 12.0726 12.3333L5.53093 13.2895L10.2634 17.8988C10.5779 18.2052 10.7214 18.6467 10.6472 19.0794L9.53062 25.5896L15.3791 22.5139C15.7676 22.3096 16.2318 22.3096 16.6203 22.5139L22.4688 25.5896L21.3522 19.0794C21.278 18.6467 21.4216 18.2052 21.7361 17.8988L26.4685 13.2895L19.9269 12.3333C19.4931 12.2699 19.1182 11.9973 18.9241 11.6042L15.9997 5.67966Z" fill="#061938"/>
</mask>
<g mask="url(#mask0_726_63347)">
<rect width="32" height="32" fill="#A4A4A4"/>
</g>
</svg>
