<svg width="40" height="40" viewBox="0 0 40 40" fill="none" xmlns="http://www.w3.org/2000/svg">
<mask id="mask0_726_65874" style="mask-type:alpha" maskUnits="userSpaceOnUse" x="1" y="1" width="38" height="36">
<path fill-rule="evenodd" clip-rule="evenodd" d="M19.9994 1.66602C20.6338 1.66602 21.2131 2.02614 21.4939 2.59498L26.2565 12.2435L36.9071 13.8002C37.5347 13.8919 38.0558 14.3319 38.2515 14.9353C38.4471 15.5386 38.2833 16.2007 37.8289 16.6433L30.1236 24.1483L31.9421 34.7509C32.0493 35.3763 31.7922 36.0082 31.279 36.3811C30.7657 36.754 30.0852 36.8031 29.5236 36.5078L19.9994 31.4991L10.4751 36.5078C9.91362 36.8031 9.23314 36.754 8.71984 36.3811C8.20654 36.0082 7.94947 35.3763 8.05672 34.7509L9.87519 24.1483L2.16984 16.6433C1.71548 16.2007 1.55169 15.5386 1.74732 14.9353C1.94295 14.3319 2.46408 13.8919 3.09168 13.8002L13.7423 12.2435L18.5049 2.59498C18.7857 2.02614 19.365 1.66602 19.9994 1.66602ZM19.9994 7.09811L16.3439 14.5037C16.1013 14.9951 15.6327 15.3359 15.0904 15.4152L6.91342 16.6104L12.829 22.3721C13.2221 22.755 13.4015 23.3069 13.3087 23.8478L11.913 31.9855L19.2236 28.1409C19.7093 27.8855 20.2895 27.8855 20.7752 28.1409L28.0858 31.9855L26.6901 23.8478C26.5973 23.3069 26.7767 22.755 27.1698 22.3721L33.0854 16.6104L24.9083 15.4152C24.3661 15.3359 23.8975 14.9951 23.6549 14.5037L19.9994 7.09811Z" fill="#061938"/>
</mask>
<g mask="url(#mask0_726_65874)">
<rect width="40" height="40" fill="#532F91"/>
</g>
</svg>
