<svg width="40" height="40" viewBox="0 0 40 40" fill="none" xmlns="http://www.w3.org/2000/svg">
<rect x="1" y="1" width="38" height="38" rx="7" fill="white"/>
<mask id="mask0_1024_350076" style="mask-type:alpha" maskUnits="userSpaceOnUse" x="11" y="18" width="18" height="4">
<path fill-rule="evenodd" clip-rule="evenodd" d="M18 20C18 18.8954 18.8954 18 20 18C21.1046 18 22 18.8954 22 20C22 21.1046 21.1046 22 20 22C18.8954 22 18 21.1046 18 20Z" fill="#061938"/>
<path fill-rule="evenodd" clip-rule="evenodd" d="M25 20C25 18.8954 25.8954 18 27 18C28.1046 18 29 18.8954 29 20C29 21.1046 28.1046 22 27 22C25.8954 22 25 21.1046 25 20Z" fill="#061938"/>
<path fill-rule="evenodd" clip-rule="evenodd" d="M11 20C11 18.8954 11.8954 18 13 18C14.1046 18 15 18.8954 15 20C15 21.1046 14.1046 22 13 22C11.8954 22 11 21.1046 11 20Z" fill="#061938"/>
</mask>
<g mask="url(#mask0_1024_350076)">
<rect x="8" y="8" width="24" height="24" fill="black"/>
</g>
<rect x="1" y="1" width="38" height="38" rx="7" stroke="black" stroke-width="2"/>
</svg>
