<svg width="24" height="18" viewBox="0 0 24 18" fill="none" xmlns="http://www.w3.org/2000/svg">
<path d="M24 2.13513C23.1174 2.49594 22.1693 2.73973 21.1726 2.84992C22.201 2.28218 22.9704 1.38861 23.3373 0.33596C22.371 0.865461 21.3135 1.23817 20.2107 1.43789C19.4691 0.707364 18.4868 0.22316 17.4164 0.0604525C16.3459 -0.102255 15.2472 0.0656378 14.2907 0.538065C13.3343 1.01049 12.5737 1.76102 12.127 2.67313C11.6803 3.58523 11.5725 4.60789 11.8203 5.58232C9.86244 5.49162 7.94711 5.02214 6.19863 4.20432C4.45016 3.38651 2.90761 2.23865 1.6711 0.835242C1.2483 1.5081 1.0052 2.28823 1.0052 3.11906C1.00473 3.86701 1.20437 4.60349 1.58641 5.26318C1.96846 5.92286 2.52109 6.48535 3.19528 6.90073C2.4134 6.87778 1.64877 6.68287 0.965031 6.33221V6.39072C0.964952 7.43974 1.35827 8.45648 2.07823 9.26841C2.7982 10.0803 3.80048 10.6375 4.915 10.8453C4.18968 11.0264 3.42923 11.053 2.69109 10.9233C3.00555 11.8259 3.61807 12.6152 4.44291 13.1807C5.26776 13.7462 6.26363 14.0595 7.29111 14.0769C5.5469 15.3402 3.39282 16.0254 1.17537 16.0224C0.782575 16.0225 0.39011 16.0013 0 15.959C2.25083 17.2941 4.87097 18.0027 7.5469 18C16.6053 18 21.5573 11.0783 21.5573 5.07523C21.5573 4.8802 21.552 4.68322 21.5425 4.48819C22.5057 3.84553 23.3372 3.04973 23.9979 2.13805L24 2.13513Z" fill="white"/>
</svg>
