<svg width="300" height="301" viewBox="0 0 300 301" fill="none" xmlns="http://www.w3.org/2000/svg">
<path d="M216.8 141.488C217.569 139.481 218 137.287 218 135C218 125.062 209.938 117 200 117C196.306 117 192.856 118.125 190.006 120.037C184.812 111.037 175.119 105 164 105C147.425 105 134 118.425 134 135C134 135.506 134.019 136.013 134.037 136.519C123.537 140.213 116 150.225 116 162C116 176.906 128.094 189 143 189H212C225.256 189 236 178.256 236 165C236 153.394 227.75 143.7 216.8 141.488ZM189.762 153H177.5V174C177.5 175.65 176.15 177 174.5 177H165.5C163.85 177 162.5 175.65 162.5 174V153H150.238C147.556 153 146.225 149.775 148.119 147.881L167.881 128.119C169.044 126.956 170.956 126.956 172.119 128.119L191.881 147.881C193.775 149.775 192.425 153 189.762 153Z" fill="#E9D7F9"/>
<path d="M151.6 147.347L70.0765 155L64 89.6535L145.524 82L151.6 147.347Z" fill="#532F91"/>
<path d="M98.277 131.952L96.1255 108.787L120.867 118.164L98.277 131.952Z" fill="white"/>
<path d="M73.1009 95.5834L68.2746 96.0216L67.9548 92.6038L72.7811 92.1656L73.1009 95.5834Z" fill="white"/>
<path d="M73.7407 102.477L68.9144 102.945L68.5946 99.5269L73.4209 99.0887L73.7407 102.477Z" fill="white"/>
<path d="M74.3805 109.4L69.5542 109.868L69.2344 106.45L74.0607 105.983L74.3805 109.4Z" fill="white"/>
<path d="M75.0221 116.324L70.1958 116.762L69.876 113.373L74.7023 112.906L75.0221 116.324Z" fill="white"/>
<path d="M75.6596 123.247L70.8333 123.685L70.5426 120.267L75.3398 119.829L75.6596 123.247Z" fill="white"/>
<path d="M76.2994 130.141L71.4731 130.608L71.1824 127.19L76.0087 126.752L76.2994 130.141Z" fill="white"/>
<path d="M76.941 137.064L72.1438 137.502L71.824 134.114L76.6503 133.646L76.941 137.064Z" fill="white"/>
<path d="M77.6081 143.987L72.7819 144.425L72.462 141.036L77.2883 140.569L77.6081 143.987Z" fill="white"/>
<path d="M78.2462 150.881L73.4199 151.348L73.1001 147.931L77.9264 147.492L78.2462 150.881Z" fill="white"/>
<path d="M142.501 89.0693L137.674 89.5074L137.355 86.1189L142.181 85.6515L142.501 89.0693Z" fill="white"/>
<path d="M143.14 95.9926L138.314 96.4308L137.994 93.013L142.821 92.5748L143.14 95.9926Z" fill="white"/>
<path d="M143.78 102.886L138.954 103.354L138.634 99.9357L143.46 99.4976L143.78 102.886Z" fill="white"/>
<path d="M144.422 109.81L139.596 110.277L139.276 106.859L144.102 106.392L144.422 109.81Z" fill="white"/>
<path d="M145.06 116.733L140.234 117.171L139.914 113.782L144.74 113.315L145.06 116.733Z" fill="white"/>
<path d="M145.701 123.656L140.875 124.094L140.584 120.676L145.381 120.238L145.701 123.656Z" fill="white"/>
<path d="M146.339 130.55L141.542 131.017L141.222 127.6L146.048 127.161L146.339 130.55Z" fill="white"/>
<path d="M147.006 137.473L142.18 137.94L141.86 134.523L146.686 134.055L147.006 137.473Z" fill="white"/>
<path d="M147.646 144.397L142.82 144.835L142.5 141.446L147.326 140.979L147.646 144.397Z" fill="white"/>
</svg>
