<svg width="89" height="88" viewBox="0 0 89 88" fill="none" xmlns="http://www.w3.org/2000/svg">
<rect x="0.5" width="88" height="88" rx="44" fill="#EC156B"/>
<mask id="mask0_1005_325100" style="mask-type:alpha" maskUnits="userSpaceOnUse" x="18" y="23" width="53" height="45">
<path fill-rule="evenodd" clip-rule="evenodd" d="M50.0179 24.0848C51.7859 23.3686 53.6809 23 55.5946 23C57.5084 23 59.4034 23.3686 61.1714 24.0848C62.939 24.8009 64.5451 25.8504 65.8979 27.1734C67.251 28.4959 68.3253 30.0669 69.0577 31.795C69.7903 33.5235 70.1673 35.3762 70.1673 37.2472C70.1673 39.1182 69.7903 40.9709 69.0577 42.6994C68.3252 44.4278 67.2516 45.9981 65.8982 47.3207L46.0849 66.6915C45.2096 67.5473 43.7905 67.5473 42.9152 66.6915L23.1019 47.3207C20.3692 44.6491 18.834 41.0255 18.834 37.2472C18.834 33.4689 20.3692 29.8454 23.1019 27.1737C25.8346 24.5021 29.5409 23.0012 33.4055 23.0012C37.2701 23.0012 40.9764 24.5021 43.7091 27.1737L44.5001 27.947L45.2906 27.1741C46.6435 25.851 48.25 24.801 50.0179 24.0848Z" fill="white"/>
</mask>
<g mask="url(#mask0_1005_325100)">
<rect x="16.5" y="16" width="56" height="56" fill="white"/>
</g>
</svg>
