<svg width="25" height="16" viewBox="0 0 25 16" fill="none" xmlns="http://www.w3.org/2000/svg">
<path d="M23.5006 2.5104C23.3647 2.02593 23.1 1.58732 22.7346 1.24119C22.3589 0.884414 21.8984 0.629204 21.3966 0.499649C19.5186 0.0049557 11.9946 0.00495581 11.9946 0.00495581C8.85795 -0.0307094 5.72205 0.126155 2.60462 0.474664C2.10281 0.613791 1.64318 0.874703 1.26662 1.23419C0.896617 1.58997 0.628617 2.0287 0.488617 2.5094C0.15231 4.32002 -0.0110908 6.15848 0.000617183 7.99999C-0.0113828 9.83985 0.151617 11.6777 0.488617 13.4906C0.625617 13.9693 0.892617 14.406 1.26362 14.7588C1.63462 15.1116 2.09662 15.3664 2.60462 15.5013C4.50762 15.995 11.9946 15.995 11.9946 15.995C15.1353 16.0307 18.2752 15.8739 21.3966 15.5253C21.8984 15.3958 22.3589 15.1406 22.7346 14.7838C23.1046 14.431 23.3676 13.9923 23.4996 13.5146C23.8447 11.7046 24.0125 9.86543 24.0006 8.02298C24.0266 6.17273 23.859 4.32484 23.5006 2.5094V2.5104ZM9.60262 11.4219V4.57912L15.8626 8.00099L9.60262 11.4219Z" fill="white"/>
</svg>
